<svg width="50" height="55" viewBox="0 0 50 55" fill="none" xmlns="http://www.w3.org/2000/svg">
<path id="Vector" opacity="0.15" fill-rule="evenodd" clip-rule="evenodd" d="M11.3229 35.8162C9.67618 34.9067 9.13868 36.2136 7.98484 38.1029C6.81242 40.0247 2.36589 42.0498 0 43.3926C1.49153 45.5451 1.78711 50.1192 0.387637 54.0665L5.29694 45.4599C5.13516 45.2203 5.05859 44.9322 5.07977 44.6428C5.10094 44.3534 5.21861 44.0799 5.41349 43.867C5.60837 43.6542 5.86891 43.5146 6.15241 43.4712C6.43592 43.4278 6.72559 43.4832 6.97394 43.6282C7.2223 43.7732 7.41463 43.9993 7.51941 44.2694C7.62419 44.5395 7.63521 44.8377 7.55067 45.1149C7.46613 45.3922 7.29104 45.6322 7.05408 45.7956C6.81712 45.959 6.53236 46.0361 6.24644 46.0143L1.33713 54.621C1.74996 54.5545 2.67593 54.2078 3.90614 53.7478C6.85618 52.6448 11.6288 50.8595 14.2408 50.9723C15.1552 51.0112 15.7426 51.3128 15.7113 52.0423C15.6287 53.9842 16.4704 54.7162 17.8167 54.7755C19.1963 54.8349 21.0986 54.0277 22.9811 53.2297C25.385 52.2094 27.755 51.2038 28.1645 52.2236C29.6226 55.8518 32.4092 55.1712 35.8117 54.3406L36.8507 54.0899C37.2049 54.0064 37.7267 53.8685 38.3493 53.7039C41.817 52.7847 48.6608 50.9648 50 52.7847C48.7223 49.9195 38.4822 52.4087 38.0483 52.5249C37.4539 52.6828 36.9568 52.8173 36.5824 52.9009L35.5293 53.1541C32.6808 53.8489 30.3492 54.4192 29.2824 51.7628C28.4118 49.5978 25.4844 50.8407 22.5146 52.1008C20.7527 52.8487 18.9713 53.6049 17.8637 53.5568C17.249 53.5309 16.868 53.139 16.9117 52.0874C16.979 50.4793 15.9296 49.8238 14.2862 49.7536C11.4315 49.6304 6.52509 51.4666 3.4896 52.6005L3.28731 52.6765C5.74031 50.6293 8.64948 49.4407 10.6628 49.6212C10.6294 46.8754 10.1394 41.9654 11.1974 39.9784C12.1345 38.2161 12.9168 37.1281 11.891 36.2073C13.0188 34.5984 13.8313 33.6462 14.3803 33.4548C21.8025 30.8645 28.4626 26.4296 33.2691 20.1463C31.3385 21.1424 29.2372 21.7549 27.0788 21.9507C33.0521 19.2632 38.1731 14.9538 41.874 9.50033C40.1102 10.1542 38.2692 10.5711 36.3983 10.7404C40.742 9.57053 45.2612 4.10446 47.1994 0C41.2064 3.92731 38.7192 -0.222267 33.5931 3.8776C34.5025 2.47196 35.5683 1.17653 36.7694 0.016713C30.8364 2.84659 25.6881 7.11911 21.7839 12.4529C21.9285 10.7185 22.4544 9.03864 23.3229 7.53626C18.6493 12.5806 15.1533 18.6217 13.0923 25.2146C12.6256 24.3602 12.3342 23.4191 12.2357 22.4479C11.0935 25.861 10.9413 29.5338 11.7973 33.0316C17.1967 24.9015 23.6307 17.5266 30.9333 11.0972C23.4697 18.539 16.8878 26.8351 11.3205 35.8179" fill="white"/>
</svg>
