<svg width="110" height="110" viewBox="0 0 110 110" fill="none" xmlns="http://www.w3.org/2000/svg">
<path d="M20.6396 59.8728L15.8373 69.8132C15.2654 71.0847 13.8936 73.8591 13.3218 75.1306C12.6359 76.6335 10.9203 77.2107 9.43452 76.5174L1.65987 72.703C0.173219 72.0096 -0.397824 70.2753 0.288048 68.7733C1.31612 66.8084 15.4937 37.3338 16.0654 36.1779C16.7513 34.675 18.4669 34.0977 19.9527 34.7911C21.3246 35.4845 26.1266 37.7961 27.7274 38.6054C29.214 39.2988 29.7851 41.0332 29.0992 42.5352C26.8135 47.0431 22.9261 55.2501 20.6393 59.8732L20.6396 59.8728ZM109.71 69.8132C108.909 68.195 94.3885 37.6801 94.0455 37.1022C93.3596 35.5993 91.6439 35.0221 90.1581 35.7154C88.6715 36.4088 83.9842 38.7205 82.4974 39.5298C81.0108 40.2232 80.4397 41.9575 81.1256 43.4595L83.6411 48.6607C84.2129 49.8169 88.5572 59.0631 89.2439 60.4507C89.7009 61.3755 96.5616 75.7086 96.7905 76.1705C97.4764 77.6734 99.192 78.2506 100.678 77.5573L108.452 73.7429C109.823 73.0495 110.395 71.316 109.709 69.8132H109.71ZM76.2084 50.7418L67.061 48.3141C64.0884 47.5046 61.0011 48.0827 58.4856 49.817C57.1138 50.7418 42.0206 61.0289 40.1909 62.1852C38.4762 63.3413 38.3613 65.7681 39.962 67.0398L41.5627 68.3113C43.2775 69.6981 45.6789 70.2761 47.8516 69.5828L63.0587 65.4217C64.6594 64.9597 66.3741 65.1903 67.7468 65.9998L73.2349 69.1208C77.0081 71.3171 84.5546 75.5934 88.328 77.6744L93.1303 75.5943L80.8956 50.0476C79.4097 50.8563 77.809 51.0877 76.2083 50.741L76.2084 50.7418ZM63.2878 97.7856C63.0589 99.6351 60.8863 102.872 59.9724 104.49L63.7456 106.686C66.9471 108.651 71.1772 105.646 70.4914 101.947L63.2878 97.7856ZM87.7564 81.0257C83.8691 78.8294 70.0336 70.8539 66.375 68.7738C65.6891 68.3118 64.7743 68.1956 63.9735 68.427L48.7664 72.5882C45.679 73.3977 42.2486 72.7035 39.734 70.7386L38.1333 69.3518C34.9318 66.9241 35.2748 61.7229 38.5903 59.5265L52.7685 49.9328L50.2531 48.6614C48.5383 47.8519 46.7088 47.5052 44.8791 47.8519L35.8468 49.47C33.9031 49.932 31.6164 48.3138 29.9009 47.6205C26.3566 55.1332 21.3255 65.6518 17.6662 73.1651C19.381 73.8585 21.4394 74.7833 22.0113 76.6329C25.3267 69.6973 35.6179 70.8536 37.2184 78.3664C40.5338 78.2511 43.7362 80.4465 44.8791 83.4524C48.4234 82.759 52.1968 84.9552 53.5687 88.307C57.3419 87.3822 61.5722 89.8099 62.83 93.5082L75.1786 100.559C77.0082 99.8656 78.2659 97.5539 78.0371 95.5892L61.2292 85.0714C59.2856 83.7999 61.1152 80.9103 63.0588 82.0664L81.2385 93.5096C83.1822 92.9315 84.554 90.7354 84.3259 88.655L66.4892 77.7888C65.6884 77.3268 65.3455 76.1707 65.9174 75.3611C66.3744 74.5516 67.5181 74.2049 68.3189 74.783L86.3845 85.7635C88.4422 85.1854 89.9288 82.7585 89.4718 80.6775C88.9 80.9097 88.3281 81.3717 87.7563 81.025L87.7564 81.0257ZM13.779 34.0976C15.1508 32.0174 17.6663 31.0925 20.0679 31.5547C19.9538 29.3583 19.9538 14.91 19.9538 12.3671C19.9538 11.327 20.9827 10.4022 21.8975 10.6336C32.8744 12.2518 44.0793 10.9803 54.4841 7.16583C54.8271 7.05053 55.2849 7.05053 55.6278 7.16583C66.0329 10.9802 77.2379 12.2518 88.2145 10.6336C89.2433 10.5183 90.2722 11.327 90.1581 12.3671C90.1581 15.6035 90.2722 29.5897 90.0441 32.5947C92.3307 32.0166 94.9603 32.9414 96.3329 35.0225C96.9048 30.2832 96.5618 8.2064 96.6759 3.005L87.4146 4.2765C76.436 5.77937 65.3451 4.1612 55.0546 0C44.8784 4.16112 33.6732 5.77933 22.811 4.16112L13.5497 2.88962C13.5497 7.28129 13.3216 30.168 13.7786 34.098L13.779 34.0976ZM81.1247 36.7559L86.3847 34.213C86.8418 30.0518 86.6136 18.8399 86.7277 14.4472C75.9796 15.6034 65.2319 14.4472 55.0558 10.7481C44.8796 14.4472 34.1317 15.7179 23.3838 14.4472C23.3838 18.1464 23.2698 29.7051 23.6127 33.1721L28.9867 35.8303C32.531 37.5638 33.217 41.725 31.1593 44.9613C32.1882 45.4233 34.3608 46.8108 35.2755 46.5794L44.3079 44.9613C46.7094 44.4993 49.339 44.9613 51.5115 46.0014L55.5138 48.0815C58.9441 45.4232 63.5173 44.1518 67.7485 45.3072L76.8958 47.7349C77.8106 47.9663 78.7254 47.7349 79.5254 47.273L78.3817 44.8452C76.895 41.9572 78.2668 38.0275 81.1254 36.756L81.1247 36.7559ZM24.9842 77.6735C23.8405 79.7536 21.325 84.1461 20.0681 86.2271C17.8954 89.9263 21.3258 94.7807 25.442 93.856L34.1316 78.5982C32.8738 74.4362 27.0427 73.859 24.9842 77.6735ZM45.6796 86.573L36.7612 102.178C37.5619 104.258 40.1915 105.645 42.364 105.183L51.0535 89.8097C50.3676 87.7295 47.8521 86.2267 45.6796 86.5732V86.573ZM54.255 91.3123L45.5655 106.454C46.7092 110.615 52.6543 111.309 54.8267 107.494L57.4563 102.986C58.2571 101.368 60.6578 98.2469 60.4289 96.3973C60.5438 93.2771 57.3424 90.619 54.255 91.3123ZM36.5331 81.6032L26.5858 98.9412C27.2717 101.369 30.2451 102.987 32.6458 102.178L42.365 85.1864C41.7923 82.7587 38.9338 81.0253 36.5333 81.6034L36.5331 81.6032Z" fill="white"/>
</svg>
