<svg width="112" height="125" viewBox="0 0 112 125" fill="none" xmlns="http://www.w3.org/2000/svg">
<path d="M33.1477 78.9512C36.6591 82.3535 39.0003 86.7864 39.8356 91.6115H59.4821C60.057 91.6115 60.5235 92.0782 60.5235 92.6547C60.5235 93.2311 60.057 93.6979 59.4821 93.6979H39.6691C38.3586 93.6979 37.2959 94.7634 37.2959 96.0764V107.555C37.2959 108.87 38.3557 109.94 39.6691 109.947H72.3303C73.6436 109.94 74.7034 108.87 74.7034 107.555V96.0908C74.7034 94.7768 73.6407 93.7113 72.3303 93.7113H67.1001C66.5213 93.7113 66.0519 93.2416 66.0519 92.6613C66.0519 92.081 66.5213 91.6113 67.1001 91.6113H72.3312H72.3303C73.2914 86.6183 75.7448 82.038 79.3657 78.4775C85.4681 72.4307 88.9988 64.2492 89.2186 55.6491C89.4373 47.0492 86.3276 38.6977 80.5409 32.3461C74.755 25.9947 66.7403 22.1351 58.1786 21.5771H56.0416C47.1461 21.5762 38.622 25.156 32.3824 31.5143C26.1425 37.8717 22.7097 46.4745 22.8539 55.3927C22.9981 64.3118 26.706 72.7982 33.148 78.9508L33.1477 78.9512ZM32.9813 51.7531C33.5097 49.819 34.8095 48.1886 36.5749 47.2453C35.9749 45.0056 36.3756 42.6144 37.6705 40.693C39.2627 38.7929 41.5343 37.5943 43.9974 37.3539C45.3824 34.9152 47.7226 33.1693 50.4501 32.5405C52.3722 32.2504 54.3361 32.6444 55.9997 33.6536C57.6634 32.6444 59.6273 32.2504 61.5492 32.5405C64.2767 33.1694 66.6169 34.9152 68.0019 37.3539C70.4554 37.6013 72.7153 38.7998 74.3008 40.693C75.6064 42.6106 76.0158 45.0008 75.4245 47.2453C77.2005 48.1828 78.511 49.8141 79.0461 51.7531C79.5872 54.1316 78.63 56.7615 76.2714 59.5854C77.5799 61.4369 78.0812 63.7416 77.6583 65.9708C77.0408 67.7855 75.6229 69.212 73.8149 69.8388C74.021 71.5477 73.5749 73.2721 72.5663 74.6658C71.1784 76.5018 68.7365 77.448 65.3656 77.5732C64.5613 78.7144 62.3963 81.4685 59.6213 82.0526V82.0536C59.2661 82.1312 58.9022 82.1691 58.5383 82.1642C57.6527 82.1933 56.7758 81.9818 55.9996 81.5528C54.9427 82.138 53.7096 82.3156 52.5308 82.0536C49.756 81.4694 47.5907 78.7144 46.7865 77.5741C43.4146 77.4771 41.0005 76.5028 39.5857 74.6668V74.6658C38.5772 73.2723 38.1311 71.5478 38.3362 69.8388C36.5292 69.2119 35.1112 67.7854 34.4928 65.9708C34.0708 63.7417 34.5712 61.4369 35.8807 59.5854C33.3973 56.8313 32.4121 54.1316 32.9813 51.7531Z" fill="white"/>
<path d="M43.25 119.296C43.7688 120.948 44.7995 122.391 46.1913 123.417C47.5831 124.443 49.2651 124.997 50.9929 125H61.0112H61.0103C62.7379 124.997 64.4201 124.443 65.8118 123.417C67.2035 122.391 68.2344 120.948 68.7531 119.296L71.0421 112.047H40.9602L43.25 119.296Z" fill="white"/>
<path d="M37.9633 60.142C37.9633 60.142 35.7847 63.0223 36.4922 65.3727H36.4932C37.0855 66.7934 38.335 67.8327 39.8371 68.1549C40.3607 68.3218 40.6568 68.8779 40.503 69.4067C40.2 70.7799 40.471 72.218 41.2521 73.3856C42.4725 74.684 44.176 75.4148 45.9558 75.4031C45.3315 71.7718 48.2031 69.3797 50.0353 68.5586C50.2898 68.4072 50.5976 68.3723 50.8793 68.4625C51.1619 68.5518 51.3932 68.7585 51.5142 69.0293C51.6352 69.301 51.6352 69.6105 51.5151 69.8823C51.3942 70.153 51.1638 70.3597 50.8812 70.451C50.465 70.646 46.8579 72.4403 48.3009 76.0153C48.6203 76.516 50.6044 79.4652 52.963 79.9524H52.962C53.6405 80.1048 54.3499 80.0058 54.9606 79.6739V68.377C54.9606 67.8016 55.4262 67.3338 56.0011 67.3338C56.576 67.3338 57.0415 67.8016 57.0415 68.377V79.73C57.6522 80.0619 58.3616 80.1609 59.0401 80.0076C61.3852 79.5204 63.3694 76.585 63.7022 76.0841L63.7012 76.0851C64.2297 74.9701 64.1677 73.6648 63.5347 72.6071C63.3789 72.3703 63.3257 72.0801 63.3867 71.8036C63.4486 71.527 63.6199 71.2873 63.8609 71.1398C64.1029 70.9923 64.3942 70.9496 64.6671 71.0214C64.9411 71.0932 65.1733 71.2737 65.3108 71.5211C66.0279 72.6895 66.2902 74.0812 66.0464 75.4309C67.833 75.4455 69.5441 74.709 70.7647 73.3998C71.4334 72.4401 71.7257 71.2649 71.5825 70.1024C67.9608 69.6153 65.3939 67.7656 65.3939 65.4831V65.4841C65.3939 64.9076 65.8604 64.4399 66.4353 64.4399C67.0093 64.4399 67.4758 64.9076 67.4758 65.4841C67.4758 66.5418 69.4599 67.8354 72.346 68.0993C73.7871 67.7393 74.9659 66.7029 75.509 65.3171C76.2175 63.0211 74.0388 60.1689 74.0388 60.1418C73.6788 59.7479 73.6788 59.1442 74.0388 58.7502C76.3694 56.2319 77.3548 54.0057 76.9385 52.1698C76.5988 50.9694 75.8148 49.9446 74.7463 49.3042C73.8646 51.2421 72.3663 52.8326 70.4869 53.8254C70.3368 53.9176 70.1636 53.9661 69.9875 53.9641C69.5074 53.9738 69.0835 53.6517 68.9615 53.1859C68.8396 52.72 69.0515 52.2319 69.4735 52.0029C71.2708 51.1402 72.6026 49.5351 73.1232 47.6069V47.5089C73.7929 45.6651 73.5829 43.6145 72.5541 41.9446C71.1981 40.4327 69.3051 39.5147 67.2813 39.3845C66.9445 39.369 66.6376 39.1866 66.4625 38.8974C64.881 36.3937 63.0905 34.9468 61.1344 34.5983V34.5993C59.6894 34.3955 58.2181 34.7002 56.9726 35.462V40.2617V40.2607C57.6046 40.973 58.4931 41.4029 59.4416 41.4572C60.5933 41.3553 61.6686 40.8362 62.4671 39.9967C62.8765 39.5979 63.5279 39.5979 63.9373 39.9967C64.3041 40.3878 64.3041 40.9972 63.9373 41.3883C62.7458 42.6625 61.1122 43.4291 59.3728 43.5301C58.5579 43.5145 57.7594 43.304 57.0413 42.9187V52.6569C59.9662 52.3338 62.9112 53.047 65.3669 54.6744C65.725 54.9432 65.8711 55.4129 65.7298 55.839C65.5875 56.265 65.1897 56.5522 64.7426 56.5522C64.5229 56.5561 64.308 56.4882 64.1319 56.3572C62.0268 54.9986 59.5114 54.427 57.0278 54.7433V60.4475C57.0278 61.024 56.5613 61.4907 55.9874 61.4907C55.4124 61.4907 54.9459 61.024 54.9459 60.4475V54.7297C46.5101 54.2154 45.4001 59.8078 45.3854 59.8632H45.3864C45.2993 60.3572 44.8744 60.7201 44.3731 60.726H44.1785H44.1795C43.9075 60.6784 43.6665 60.5231 43.5098 60.296C43.353 60.068 43.2939 59.7866 43.3472 59.5149C43.3472 59.4314 44.7351 52.0997 54.9468 52.656L54.9458 42.9187C54.187 43.3603 53.3266 43.599 52.4488 43.6136C51.7887 43.6097 51.1345 43.4816 50.5199 43.238C50.0204 43.011 49.7823 42.4335 49.9769 41.9182C50.1705 41.4039 50.7309 41.1293 51.2554 41.2904C52.5611 41.7989 54.0448 41.4185 54.946 40.3442V35.4621C53.7004 34.7003 52.2292 34.3956 50.7842 34.5994C48.8282 34.9468 47.0376 36.3937 45.4561 38.8984V38.8975C45.2809 39.1867 44.9741 39.3691 44.6373 39.3846C42.6087 39.5108 40.7106 40.4298 39.3509 41.9447C38.322 43.6148 38.112 45.6654 38.7817 47.509V47.607C38.9279 48.2611 39.2018 48.8812 39.587 49.4295C39.8725 49.9001 39.738 50.5135 39.2812 50.8201C39.1147 50.9385 38.9163 51.0016 38.7121 51.0016C38.3607 50.9977 38.0345 50.8201 37.8381 50.528C37.5719 50.1243 37.3445 49.6954 37.1587 49.248C36.0853 49.8963 35.3013 50.9317 34.9664 52.1418C34.5638 53.9778 35.5355 56.1904 37.8661 58.7088C38.2804 59.0814 38.323 59.7161 37.9629 60.1421L37.9633 60.142Z" fill="white"/>
<path d="M12.5288 51.4324C13.1037 51.4324 13.5702 50.9656 13.5702 50.3892C13.5702 49.8127 13.1037 49.3459 12.5288 49.3459H1.04044C0.465536 49.3459 0 49.8127 0 50.3892C0 50.9656 0.465536 51.4324 1.04044 51.4324H12.5288Z" fill="white"/>
<path d="M110.96 51.4321C111.535 51.4321 112 50.9653 112 50.3889C112 49.8125 111.535 49.3457 110.96 49.3457H99.4715C98.8966 49.3457 98.4301 49.8125 98.4301 50.3889C98.4301 50.9653 98.8966 51.4321 99.4715 51.4321H110.96Z" fill="white"/>
<path d="M17.8712 14.7879C17.4647 14.3813 16.8065 14.3813 16.4 14.7879C16.0003 15.2032 16.0003 15.8612 16.4 16.2765L24.5309 24.4156C24.7225 24.6164 24.9887 24.728 25.2665 24.7213C25.5423 24.7222 25.8075 24.6126 26.002 24.4156C26.4076 24.008 26.4076 23.3481 26.002 22.9405L17.8712 14.7879Z" fill="white"/>
<path d="M87.4719 84.6549C87.0692 84.3929 86.5408 84.4414 86.1914 84.7713C85.843 85.1013 85.7636 85.6272 86.0007 86.0455L94.1316 94.1846C94.5381 94.5912 95.1962 94.5912 95.6027 94.1846C96.0082 93.777 96.0082 93.1171 95.6027 92.7095L87.4719 84.6549Z" fill="white"/>
<path d="M16.4014 94.1999C16.8079 94.6065 17.4661 94.6065 17.8726 94.1999L26.0034 86.0474C26.2706 85.8737 26.4448 85.5855 26.4728 85.2662C26.5019 84.9479 26.3838 84.6325 26.1505 84.4132C25.9183 84.1929 25.5988 84.093 25.2824 84.1405C24.9669 84.1881 24.69 84.3783 24.5323 84.6568L16.4014 92.725C15.9959 93.1326 15.9959 93.7923 16.4014 94.1999Z" fill="white"/>
<path d="M95.5999 14.7879C95.1934 14.3813 94.5352 14.3813 94.1287 14.7879L85.9979 22.9403C85.5923 23.3479 85.5923 24.0078 85.9979 24.4154C86.1924 24.6124 86.4576 24.7221 86.7335 24.7211C87.0112 24.7279 87.2774 24.6163 87.469 24.4154L95.5999 16.2763C95.9996 15.861 95.9996 15.2032 95.5999 14.7879Z" fill="white"/>
<path d="M57.0413 12.5622V1.04321C57.0413 0.466775 56.5758 0 56.0009 0C55.426 0 54.9604 0.466775 54.9604 1.04321V12.5622C54.9604 13.1386 55.426 13.6063 56.0009 13.6063C56.5758 13.6063 57.0413 13.1386 57.0413 12.5622Z" fill="white"/>
</svg>
