<svg width="106" height="130" viewBox="0 0 106 130" fill="none" xmlns="http://www.w3.org/2000/svg">
<path fill-rule="evenodd" clip-rule="evenodd" d="M29.6904 99.0271C31.6912 100.096 33.0765 102.024 33.4774 104.25C35.0454 104.037 36.5835 104.298 37.9833 105.046C39.6566 105.94 40.9076 107.428 41.5076 109.225C43.3297 108.726 45.2629 108.946 46.9323 109.837C48.6056 110.731 49.8567 112.217 50.4567 114.015C52.2787 113.517 54.2137 113.737 55.8814 114.629C56.7228 115.08 57.4638 115.68 58.0744 116.413C61.134 118.146 64.1926 119.917 67.2678 121.62C68.6619 122.387 70.4268 121.854 71.192 120.464C71.9678 119.05 71.4258 117.292 70.0317 116.506C65.7066 114.078 61.3909 111.601 57.0657 109.164C56.0195 108.578 55.6475 107.252 56.233 106.204C56.8184 105.157 58.1429 104.784 59.1892 105.37L75.1037 114.336C76.5007 115.079 78.2484 114.561 79.0116 113.173C79.7893 111.759 79.2454 110.001 77.8514 109.215C73.8121 106.95 69.7739 104.684 65.7559 102.382C64.7145 101.785 64.3531 100.456 64.9492 99.4132C65.5453 98.3706 66.8727 98.0088 67.9141 98.6056C71.9205 100.902 75.9471 103.162 79.9767 105.422C81.393 106.232 83.1174 105.634 83.9125 104.253C84.6815 102.832 84.1115 101.088 82.7348 100.303L65.1848 90.2894C62.3366 88.6645 58.4695 90.2314 54.4427 91.8641C45.9989 95.286 39.4432 97.1394 32.9837 88.8192C31.9162 87.5454 32.3731 85.5287 33.7768 84.7084C36.1979 83.2943 38.444 81.8212 40.4824 80.2873C42.5344 78.7445 44.4279 77.1109 46.1419 75.3777C46.8848 74.6261 47.6123 73.9423 48.3243 73.3165C44.7411 71.9604 41.5316 72.713 38.5687 73.4094C34.943 74.2605 31.6062 75.043 27.9532 73.0167L27.8296 72.9586L18.0894 95.0279C20.2969 96.0232 21.0011 97.8997 21.4369 99.9029C22.2117 99.25 23.1092 98.7693 24.0607 98.4801C25.874 97.9307 27.8961 98.069 29.6902 99.0275L29.6904 99.0271ZM67.5131 47.8311C65.8031 50.4484 63.0035 51.9853 60.026 52.1081L63.0111 59.0469L67.4659 51.8595L75.7424 53.557L71.4934 43.6786C68.8714 44.8035 69.0946 45.412 67.5131 47.8311ZM43.7694 25.88C42.9211 25.0307 42.9211 23.6515 43.7694 22.8022C44.6176 21.953 45.9952 21.953 46.8436 22.8022L49.8703 25.8324L59.2365 17.3238C60.1234 16.5162 61.4962 16.581 62.302 17.4679C63.1087 18.3549 63.044 19.7303 62.1581 20.5371L51.3445 30.3622C50.5031 31.226 49.107 31.225 48.2587 30.3738L43.7694 25.88ZM56.0513 1.03228C60.8325 4.61594 59.7485 4.22026 65.7114 4.55206C68.002 4.67876 69.8616 6.2418 70.3852 8.47792C71.7474 14.3007 71.1697 13.2996 75.5258 17.3909C77.1981 18.9627 77.6203 21.3576 76.5846 23.4071C73.8893 28.7443 74.0901 27.6058 74.8002 33.5428C75.0727 35.8235 73.8583 37.9292 71.7493 38.8325C66.3711 41.1393 66.9382 40.7592 63.8746 45.4474C62.6197 47.3702 60.3367 48.2001 58.1407 47.5356C52.4234 45.8053 53.5779 45.8053 47.8606 47.5356C45.6647 48.2001 43.3829 47.3683 42.1268 45.4474C38.8574 40.4429 39.7425 41.1868 34.2521 38.8325C32.1431 37.9281 30.9296 35.8225 31.2012 33.5428C31.9093 27.6058 32.1103 28.7433 29.4168 23.4071C28.3821 21.3575 28.8033 18.9627 30.4756 17.3909C34.8297 13.2986 34.2539 14.2997 35.6162 8.47792C36.1398 6.2417 37.9995 4.67958 40.29 4.55206C46.2527 4.22031 45.1689 4.61589 49.9501 1.03228C51.7866 -0.344092 54.2154 -0.344092 56.051 1.03228H56.0513ZM53.0013 9.61742C45.1326 9.61742 38.7535 16.005 38.7535 23.882C38.7535 31.76 45.1336 38.1466 53.0013 38.1466C60.8701 38.1466 67.2492 31.759 67.2492 23.882C67.2492 16.005 60.8701 9.61742 53.0013 9.61742ZM30.2605 55.7918L38.5833 54.3361L42.8273 61.6493L47.2811 52.0717C43.8339 52.4093 40.4459 50.8298 38.4876 47.8324C37.7176 46.6533 36.8607 44.688 35.6617 44.1752L30.2605 55.7918ZM24.8108 114.042C23.6785 114.873 22.6033 114.75 21.4121 114.214C20.0702 113.41 19.5524 111.688 20.2209 110.274C21.3464 108.477 22.4835 106.032 23.5105 104.108C24.3027 102.626 26.1742 102.064 27.6522 102.854C29.0231 103.587 29.6259 105.287 29.0346 106.722L24.8108 114.042ZM37.5013 112.134L32.7819 121.28C31.9492 122.7 30.1445 123.226 28.6885 122.446C27.2085 121.652 26.6452 119.779 27.4365 118.299C29.0952 115.193 30.8933 112.182 32.6544 109.132C33.6051 108.421 34.8948 108.313 35.944 108.874C37.1111 109.497 37.7332 110.84 37.5014 112.134L37.5013 112.134ZM42.3191 124.862C41.4129 126.016 39.7687 126.369 38.473 125.676C37.4258 125.116 36.8142 124.002 36.8712 122.819L41.3393 114.156C42.2841 113.26 43.741 113.05 44.8945 113.667C46.0548 114.287 46.6779 115.621 46.4528 116.911L42.3191 124.862ZM52.0061 128.388C51.2139 129.87 49.3425 130.434 47.8645 129.641C46.7941 129.067 46.1748 127.895 46.2704 126.689L50.2971 118.941C51.2438 118.048 52.6949 117.842 53.8446 118.457C55.3073 119.24 55.885 121.127 55.0967 122.604L52.0061 128.388ZM61.3318 123.249C62.8563 124.113 63.9074 125.439 62.808 127.439C62.0632 128.794 60.3165 129.385 58.9427 128.628C58.4287 128.344 57.8259 127.99 57.2935 127.686L58.9175 124.646C59.3127 123.906 59.5706 123.121 59.6981 122.325L61.3318 123.249ZM37.5987 87.4966C39.5 86.3233 41.3328 85.0814 43.0853 83.7641C45.3218 82.084 47.3758 80.3122 49.221 78.4462C58.1023 69.4606 64.2524 71.9115 69.3381 73.937C72.8451 75.3355 75.9596 76.5755 79.3718 75.1324L88.0107 97.4416L86.6949 97.99L86.6128 97.9001C86.122 97.3759 85.5424 96.9125 84.8806 96.5353L67.3305 86.5217C62.6567 83.8542 57.8356 85.8069 52.8168 87.842C47.6723 89.9264 42.2649 92.1171 37.5987 87.4966ZM14.4191 60.6358C15.1031 59.0863 16.9309 58.3783 18.4787 59.0631L24.6434 61.7918C26.191 62.4765 26.9002 64.3065 26.2142 65.856L12.0581 97.9216C11.3741 99.4711 9.54635 100.179 7.99862 99.4943L1.83194 96.7656C0.28426 96.0808 -0.422926 94.2509 0.261063 92.7014L14.4191 60.6358ZM93.1362 62.9117L105.793 95.5987C106.405 97.1792 105.614 98.9744 104.036 99.5865L97.7513 102.026C96.1727 102.638 94.3796 101.847 93.7682 100.266L81.1114 67.5794C80.4998 65.999 81.2901 64.2038 82.8687 63.5917L89.1531 61.1523C90.7317 60.54 92.5248 61.3312 93.1362 62.9117ZM88.3085 66.2109C87.1511 66.2109 86.214 67.15 86.214 68.3078C86.214 69.4666 87.1521 70.4048 88.3085 70.4048C89.4659 70.4048 90.403 69.4656 90.403 68.3078C90.404 67.15 89.4659 66.2109 88.3085 66.2109ZM19.0886 64.1555C17.9331 64.1023 16.9535 64.996 16.9003 66.1528C16.8472 67.3096 17.7399 68.2904 18.8953 68.3436C20.0508 68.3968 21.0304 67.5031 21.0835 66.3463C21.1367 65.1895 20.244 64.2087 19.0886 64.1555Z" fill="white"/>
</svg>
