<svg width="92" height="120" viewBox="0 0 92 120" fill="none" xmlns="http://www.w3.org/2000/svg">
<g id="Group">
<path id="Vector" d="M89.2773 111.772L81.2462 110.933L81.247 110.934C80.2964 110.837 79.3766 111.299 78.8888 112.114L74.845 118.823C74.3821 119.584 73.5401 120.034 72.6477 119.998C71.7544 119.962 70.9518 119.447 70.5514 118.652L50.1202 77.6787C58.23 76.645 65.6528 72.6183 70.9161 66.3962L91.7691 108.324C92.1405 109.122 92.0515 110.057 91.5355 110.77C91.0195 111.485 90.157 111.868 89.2774 111.773L89.2773 111.772Z" fill="white"/>
<path id="Vector_2" d="M41.8799 77.6786L21.4488 118.652C21.0483 119.447 20.2457 119.962 19.3524 119.998C18.46 120.034 17.618 119.584 17.1552 118.823L13.1114 112.114C12.6236 111.298 11.7038 110.837 10.7531 110.933L2.72197 111.772L2.72283 111.771C1.83381 111.863 0.965328 111.468 0.455256 110.739C-0.0555603 110.009 -0.126574 109.062 0.26958 108.265L21.084 66.3948C26.3471 72.6166 33.7699 76.6435 41.8799 77.6772L41.8799 77.6786Z" fill="white"/>
<path id="Vector_3" d="M45.9997 77.927H45.4821L39.579 89.7616C43.3737 91.6904 47.8429 91.8027 51.731 90.067L52.383 89.7625L46.4799 77.9279L45.9997 77.927Z" fill="white"/>
<path id="Vector_4" d="M87.2268 35.1982C84.0875 32.3864 82.3778 28.3239 82.5695 24.126C82.8099 20.2412 81.4135 16.4322 78.7156 13.6125C76.0178 10.7931 72.2614 9.21551 68.3477 9.26082H67.658C63.4422 9.47607 59.3504 7.8051 56.5028 4.70566C53.8263 1.71259 49.9897 0 45.9612 0C41.9327 0 38.097 1.71266 35.4196 4.70566C32.5865 7.77713 28.5282 9.43854 24.3415 9.24121C20.4346 9.00298 16.6048 10.3915 13.7682 13.0733C10.9326 15.7557 9.34694 19.4909 9.39162 23.3824V24.0877C9.60468 28.2924 7.90879 32.3701 4.77281 35.1983C1.76595 37.8427 0.0315427 41.632 0 45.6231C0.00598961 49.6082 1.71301 53.4046 4.69592 56.0666C7.83354 58.8802 9.54232 62.9418 9.35329 67.1389C9.17702 70.5207 10.2089 73.8559 12.2668 76.5539L18.822 63.4039C14.4437 56.8663 12.6031 48.9701 13.6427 41.1836C14.6823 33.3971 18.53 26.252 24.4719 21.0768C30.4137 15.9015 38.0433 13.0478 45.9428 13.0478C53.8414 13.0478 61.4721 15.9015 67.4129 21.0768C73.3545 26.2522 77.2032 33.3979 78.2428 41.1836C79.2815 48.9692 77.441 56.8655 73.0634 63.4039L79.6186 76.5539C81.5327 74.0509 82.5637 70.9896 82.551 67.8443V67.139C82.3619 62.9419 84.0706 58.8803 87.2084 56.0667C90.2262 53.4215 91.9691 49.6236 92 45.6232C91.9683 41.6322 90.2339 37.8426 87.2272 35.1985L87.2268 35.1982Z" fill="white"/>
<path id="Vector_5" d="M45.9999 18.218C36.3645 18.2163 27.4281 23.219 22.4305 31.4104C17.433 39.6018 17.1024 49.7935 21.556 58.2896C26.0088 66.7857 34.6014 72.3524 44.2164 72.9709H47.781C57.3967 72.3524 65.9892 66.7857 70.4413 58.2896C74.895 49.7935 74.5638 39.6018 69.5668 31.4104C64.5699 23.219 55.6335 18.2163 45.9974 18.218H45.9999ZM36.6083 60.6985C36.6083 61.6778 35.81 62.4707 34.826 62.4707H29.3634C28.3785 62.4707 27.5811 61.6778 27.5811 60.6985V45.4522C27.5811 44.4738 28.3785 43.68 29.3634 43.68H34.9603C35.3975 43.68 35.8168 43.8528 36.1257 44.1599C36.4345 44.467 36.6082 44.8839 36.6082 45.3187L36.6083 60.6985ZM62.3879 49.092V49.0928C63.2709 49.6314 63.7373 50.6481 63.5695 51.664C63.401 52.6807 62.6309 53.4941 61.6212 53.7238C62.2304 54.3295 62.4897 55.1999 62.3117 56.0379C62.1346 56.8768 61.5425 57.5685 60.7399 57.8782C61.2191 58.3938 61.4621 59.0838 61.4107 59.784C61.3192 61.1376 60.1872 62.1883 58.8234 62.1849H42.3204C41.1362 62.1849 39.9998 61.7178 39.163 60.8848C38.3254 60.0519 37.8547 58.922 37.8547 57.7445V46.3098C37.8547 45.328 38.5008 44.461 39.4454 44.1752C41.6453 43.1491 43.6047 41.6754 45.1954 39.8498C46.8665 37.3407 47.753 34.3971 47.7444 31.3877C47.6306 30.7291 47.7598 30.0528 48.1089 29.4819C48.6651 28.7196 50.6391 27.5761 52.3444 30.4731C53.4713 32.4069 53.8786 34.6734 53.4944 36.8761C53.1881 38.6483 52.1339 40.1542 51.8464 41.8882C51.7917 42.3723 51.9465 42.8555 52.2725 43.2197C52.5977 43.583 53.0632 43.7923 53.5526 43.794H61.8131C63.171 43.7055 64.3595 44.6932 64.5126 46.0376C64.6666 47.3818 63.7314 48.6096 62.388 48.8257L62.3879 49.092Z" fill="white"/>
<path id="Vector_6" d="M34.693 57.8587C34.693 59.2897 33.5259 60.4501 32.0868 60.4501C30.6468 60.4501 29.4797 59.2896 29.4797 57.8587C29.4797 56.4268 30.6468 55.2664 32.0868 55.2664C33.526 55.2664 34.693 56.4268 34.693 57.8587Z" fill="white"/>
</g>
</svg>
