<svg width="114" height="110" viewBox="0 0 114 110" fill="none" xmlns="http://www.w3.org/2000/svg">
<path d="M35.5395 54.6856C35.5395 62.4386 29.2556 68.7242 21.5042 68.7242C13.7535 68.7242 7.4696 62.4386 7.4696 54.6856C7.4696 46.9318 13.7535 40.647 21.5042 40.647C29.2559 40.647 35.5395 46.9318 35.5395 54.6856Z" fill="white"/>
<path d="M26.783 72.444H16.3472C8.78991 72.444 2.43233 78.0834 1.59308 85.6431L0.0334196 97.7617C-0.206724 99.3218 0.873506 100.761 2.43229 101.121C8.43 102.441 14.9071 103.041 21.5048 103.041C24.2635 103.041 26.9025 102.922 29.422 102.681L30.7415 91.883C31.4611 86.2435 34.2198 81.4442 38.2989 78.0847C35.6599 74.6047 31.3415 72.4444 26.7828 72.4444L26.783 72.444Z" fill="white"/>
<path d="M106.553 54.6856C106.553 62.4386 100.269 68.7242 92.518 68.7242C84.7663 68.7242 78.4827 62.4386 78.4827 54.6856C78.4827 46.9318 84.7666 40.647 92.518 40.647C100.269 40.647 106.553 46.9318 106.553 54.6856Z" fill="white"/>
<path d="M112.55 85.6425C111.71 78.083 105.233 72.4434 97.796 72.4434H87.3602C82.682 72.4434 78.4833 74.6027 75.7246 78.0828C79.8028 81.4425 82.682 86.2416 83.2819 91.881L84.6015 102.68C87.1209 102.92 89.8797 103.039 92.5187 103.039C99.2359 103.039 105.593 102.32 111.591 101.119C113.151 100.76 114.111 99.32 113.99 97.7598L112.55 85.6425Z" fill="white"/>
<path d="M62.1701 79.5229H51.7343C44.177 79.5229 37.8194 85.1624 36.9802 92.6015L35.541 104.72C35.3008 106.28 36.3811 107.84 37.9399 108.08C43.9376 109.4 50.4147 110 57.0124 110C63.7296 110 70.0872 109.28 76.0849 108.08C77.6445 107.72 78.6043 106.28 78.4837 104.72L77.0446 92.6015C76.0848 85.1624 69.7275 79.5229 62.1701 79.5229Z" fill="white"/>
<path d="M71.0463 61.7652C71.0463 69.519 64.7633 75.8038 57.0117 75.8038C49.2601 75.8038 42.9771 69.519 42.9771 61.7652C42.9771 54.0122 49.2601 47.7266 57.0117 47.7266C64.7633 47.7266 71.0463 54.0122 71.0463 61.7652Z" fill="white"/>
<path d="M43.9364 24.9286C44.7765 25.6484 45.1363 26.8486 44.8962 27.9283L42.6168 37.2874C42.0169 39.9271 44.8962 41.9669 47.1753 40.5273L55.4524 35.4878C56.4121 34.8876 57.6111 34.8876 58.571 35.4878L66.848 40.5273C69.1274 41.9669 72.0056 39.8075 71.4065 37.2874L69.1272 27.9283C68.887 26.8486 69.2468 25.6483 70.0869 24.9286L77.4041 18.689C79.4432 16.8895 78.3638 13.5299 75.7248 13.4093L66.1282 12.569C65.0488 12.4493 63.9695 11.7286 63.6088 10.7695L59.8904 1.89014C58.811 -0.630045 55.3319 -0.630045 54.2526 1.89014L50.5342 10.6499C50.0547 11.7296 49.095 12.4494 48.0147 12.4494L38.4182 13.2897C35.7792 13.5299 34.6998 16.8896 36.7389 18.5694L43.9364 24.9286Z" fill="white"/>
</svg>
